<?xml version="1.0" encoding="utf-8"?>
<!-- Generator: Adobe Illustrator 23.0.2, SVG Export Plug-In . SVG Version: 6.00 Build 0)  -->
<svg version="1.1" id="Calque_1" xmlns="http://www.w3.org/2000/svg" xmlns:xlink="http://www.w3.org/1999/xlink" x="0px" y="0px"
	 viewBox="0 0 1920 1080" style="enable-background:new 0 0 1920 1080;" xml:space="preserve">
<style type="text/css">
	.st0{fill:#FAF5E5;}
	.st1{fill:#F8B600;}
	.st2{fill:#F4C45B;}
	.st3{fill:#FFFFFF;}
	.st4{fill:#F79B21;}
</style>
<path class="st0" d="M299.7,120.7c8,1.1,16.1,0.5,23.8-1.7c18.6-5.4,32.5-20.3,34.9-36.3c1.3-8-0.3-16.3-4.5-23.2
	c-2.9-4.8-2.7-10.9,0.6-15.4c4.5-6.4,6.9-13.9,6.9-21.7c0-17.4-12.2-33.2-30.2-40.6c-8.2-3.2-14.5-9.8-17.4-18.1
	c-5.3-16.8-17.2-24.6-34.4-27.1c-15.5-2.2-29.5,2.8-36.8,12.5c-4.3,5.6-13.4,8.1-22.8,5.8c-5.8-1.4-11.7-2.2-17.6-2.3
	c-26-0.2-48.1,13.2-51.9,32.5C149.1-8.6,149.9-2,152.6,4c4.5,10.3,0.4,21.2-10.2,28.9s-16.6,17.8-16.6,28.9c0,13.4,21.6,24,40,30.3
	c13.9,4.8,22.4,14.2,24.4,25.1c0,0.1,0,0.3,0,0.4c3.5,18.1,23.4,30.2,46.8,29.3c16.9-0.4,33-7.5,44.7-19.7
	C286.2,122.3,292.9,119.8,299.7,120.7z"/>
<circle class="st1" cx="274.1" cy="43.5" r="50.8"/>
<path class="st2" d="M263.9,14.6c-2.2,0-4-1.9-4-4.1c0-1.7,1.1-3.3,2.8-3.8c3.7-1.1,7.5-1.7,11.4-1.7c2.2,0,4.1,1.8,4.1,4.1
	s-1.8,4.1-4.1,4.1c-3,0-6.1,0.4-9,1.3C264.7,14.5,264.3,14.6,263.9,14.6z"/>
<path class="st2" d="M239.5,47.6c-2.2,0-4.1-1.8-4.1-4.1c0-11.4,5-22.2,13.7-29.5c1.5-1.6,4.1-1.7,5.7-0.2c1.6,1.5,1.7,4.1,0.2,5.7
	c-0.2,0.2-0.4,0.4-0.7,0.6c-6.9,5.8-10.8,14.3-10.8,23.3C243.6,45.8,241.8,47.6,239.5,47.6z"/>
<path class="st3" d="M224.3,130.7c-12.7,0-23.6-9.1-25.8-21.6c-0.4-2.2,1.1-4.4,3.4-4.8c2.2-0.4,4.4,1.1,4.8,3.4
	c1.6,9.4,10.3,15.8,19.7,14.7h0.6c2.2-0.3,4.3,1.3,4.6,3.6c0.3,2.2-1.3,4.3-3.6,4.6h-0.6C226.2,130.7,225.2,130.7,224.3,130.7z"/>
<path class="st3" d="M198.8,102.4c-1.4,0-2.8-0.7-3.5-1.9c-1.7-2.8-3.9-5.2-6.6-7.1c-1.8-1.4-2.1-3.9-0.7-5.7
	c1.1-1.4,3.1-1.9,4.7-1.2c3.8,2.5,7.1,5.9,9.5,9.8c1.2,1.9,0.6,4.4-1.3,5.6C200.2,102.2,199.5,102.4,198.8,102.4z"/>
<ellipse transform="matrix(0.83 -0.5577 0.5577 0.83 14.1404 173.1693)" class="st4" cx="291.2" cy="63.4" rx="30.5" ry="18.3"/>
<path class="st0" d="M799.7,120.7c8,1.1,16.1,0.5,23.8-1.7c18.6-5.4,32.5-20.3,34.9-36.3c1.3-8-0.3-16.3-4.5-23.2
	c-2.9-4.8-2.7-10.9,0.6-15.4c4.5-6.4,6.9-13.9,6.9-21.7c0-17.4-12.2-33.2-30.2-40.6c-8.2-3.2-14.5-9.8-17.4-18.1
	c-5.3-16.8-17.2-24.6-34.4-27.1c-15.5-2.2-29.5,2.8-36.8,12.5c-4.3,5.6-13.4,8.1-22.8,5.8c-5.8-1.4-11.7-2.2-17.6-2.3
	c-26-0.2-48.1,13.2-51.9,32.5C649.1-8.6,649.9-2,652.6,4c4.5,10.3,0.4,21.2-10.2,28.9c-10.6,7.7-16.6,17.8-16.6,28.9
	c0,13.4,21.6,24,40,30.3c13.9,4.8,22.4,14.2,24.4,25.1c0,0.1,0,0.3,0,0.4c3.5,18.1,23.4,30.2,46.8,29.3c16.9-0.4,33-7.5,44.7-19.7
	C786.2,122.3,792.9,119.8,799.7,120.7z"/>
<circle class="st1" cx="774.1" cy="43.5" r="50.8"/>
<path class="st2" d="M763.9,14.6c-2.2,0-4-1.9-4-4.1c0-1.7,1.1-3.3,2.8-3.8c3.7-1.1,7.5-1.7,11.4-1.7c2.2,0,4.1,1.8,4.1,4.1
	s-1.8,4.1-4.1,4.1c-3,0-6.1,0.4-9,1.3C764.7,14.5,764.3,14.6,763.9,14.6z"/>
<path class="st2" d="M739.5,47.6c-2.2,0-4.1-1.8-4.1-4.1c0-11.4,5-22.2,13.7-29.5c1.5-1.6,4.1-1.7,5.7-0.2c1.6,1.5,1.7,4.1,0.2,5.7
	c-0.2,0.2-0.4,0.4-0.7,0.6c-6.9,5.8-10.8,14.3-10.8,23.3C743.6,45.8,741.8,47.6,739.5,47.6z"/>
<path class="st3" d="M724.3,130.7c-12.7,0-23.6-9.1-25.8-21.6c-0.4-2.2,1.1-4.4,3.4-4.8c2.2-0.4,4.4,1.1,4.8,3.4
	c1.6,9.4,10.3,15.8,19.7,14.7h0.6c2.2-0.3,4.3,1.3,4.6,3.6c0.3,2.2-1.3,4.3-3.6,4.6h-0.6C726.2,130.7,725.2,130.7,724.3,130.7z"/>
<path class="st3" d="M698.8,102.4c-1.4,0-2.8-0.7-3.5-1.9c-1.7-2.8-3.9-5.2-6.6-7.1c-1.8-1.4-2.1-3.9-0.7-5.7
	c1.1-1.4,3.1-1.9,4.7-1.2c3.8,2.5,7.1,5.9,9.5,9.8c1.2,1.9,0.6,4.4-1.3,5.6C700.2,102.2,699.5,102.4,698.8,102.4z"/>
<ellipse transform="matrix(0.83 -0.5577 0.5577 0.83 99.1343 452.0418)" class="st4" cx="791.2" cy="63.4" rx="30.5" ry="18.3"/>
<path class="st0" d="M1299.7,120.7c8,1.1,16.1,0.5,23.8-1.7c18.6-5.4,32.5-20.3,34.9-36.3c1.3-8-0.3-16.3-4.5-23.2
	c-2.9-4.8-2.7-10.9,0.6-15.4c4.5-6.4,6.9-13.9,6.9-21.7c0-17.4-12.2-33.2-30.2-40.6c-8.2-3.2-14.5-9.8-17.4-18.1
	c-5.3-16.8-17.2-24.6-34.4-27.1c-15.5-2.2-29.5,2.8-36.8,12.5c-4.3,5.6-13.4,8.1-22.8,5.8c-5.8-1.4-11.7-2.2-17.6-2.3
	c-26-0.2-48.1,13.2-51.9,32.5c-1.2,6.5-0.4,13.1,2.3,19.1c4.5,10.3,0.4,21.2-10.2,28.9s-16.6,17.8-16.6,28.9c0,13.4,21.6,24,40,30.3
	c13.9,4.8,22.4,14.2,24.4,25.1c0,0.1,0,0.3,0,0.4c3.5,18.1,23.4,30.2,46.8,29.3c16.9-0.4,33-7.5,44.7-19.7
	C1286.2,122.3,1292.9,119.8,1299.7,120.7z"/>
<circle class="st1" cx="1274.1" cy="43.5" r="50.8"/>
<path class="st2" d="M1263.9,14.6c-2.2,0-4-1.9-4-4.1c0-1.7,1.1-3.3,2.8-3.8c3.7-1.1,7.5-1.7,11.4-1.7c2.2,0,4.1,1.8,4.1,4.1
	s-1.8,4.1-4.1,4.1c-3,0-6.1,0.4-9,1.3C1264.7,14.5,1264.3,14.6,1263.9,14.6z"/>
<path class="st2" d="M1239.5,47.6c-2.2,0-4.1-1.8-4.1-4.1c0-11.4,5-22.2,13.7-29.5c1.5-1.6,4.1-1.7,5.7-0.2c1.6,1.5,1.7,4.1,0.2,5.7
	c-0.2,0.2-0.4,0.4-0.7,0.6c-6.9,5.8-10.8,14.3-10.8,23.3C1243.6,45.8,1241.8,47.6,1239.5,47.6z"/>
<path class="st3" d="M1224.3,130.7c-12.7,0-23.6-9.1-25.8-21.6c-0.4-2.2,1.1-4.4,3.4-4.8c2.2-0.4,4.4,1.1,4.8,3.4
	c1.6,9.4,10.3,15.8,19.7,14.7h0.6c2.2-0.3,4.3,1.3,4.6,3.6c0.3,2.2-1.3,4.3-3.6,4.6h-0.6C1226.2,130.7,1225.2,130.7,1224.3,130.7z"
	/>
<path class="st3" d="M1198.8,102.4c-1.4,0-2.8-0.7-3.5-1.9c-1.7-2.8-3.9-5.2-6.6-7.1c-1.8-1.4-2.1-3.9-0.7-5.7
	c1.1-1.4,3.1-1.9,4.7-1.2c3.8,2.5,7.1,5.9,9.5,9.8c1.2,1.9,0.6,4.4-1.3,5.6C1200.2,102.2,1199.5,102.4,1198.8,102.4z"/>
<ellipse transform="matrix(0.83 -0.5577 0.5577 0.83 184.1282 730.9144)" class="st4" cx="1291.2" cy="63.4" rx="30.5" ry="18.3"/>
<path class="st0" d="M1799.7,120.7c8,1.1,16.1,0.5,23.8-1.7c18.6-5.4,32.5-20.3,34.9-36.3c1.3-8-0.3-16.3-4.5-23.2
	c-2.9-4.8-2.7-10.9,0.6-15.4c4.5-6.4,6.9-13.9,6.9-21.7c0-17.4-12.2-33.2-30.2-40.6c-8.2-3.2-14.5-9.8-17.4-18.1
	c-5.3-16.8-17.2-24.6-34.4-27.1c-15.5-2.2-29.5,2.8-36.8,12.5c-4.3,5.6-13.4,8.1-22.8,5.8c-5.8-1.4-11.7-2.2-17.6-2.3
	c-26-0.2-48.1,13.2-51.9,32.5c-1.2,6.5-0.4,13.1,2.3,19.1c4.5,10.3,0.4,21.2-10.2,28.9s-16.6,17.8-16.6,28.9c0,13.4,21.6,24,40,30.3
	c13.9,4.8,22.4,14.2,24.4,25.1c0,0.1,0,0.3,0,0.4c3.5,18.1,23.4,30.2,46.8,29.3c16.9-0.4,33-7.5,44.7-19.7
	C1786.2,122.3,1792.9,119.8,1799.7,120.7z"/>
<circle class="st1" cx="1774.1" cy="43.5" r="50.8"/>
<path class="st2" d="M1763.9,14.6c-2.2,0-4-1.9-4-4.1c0-1.7,1.1-3.3,2.8-3.8c3.7-1.1,7.5-1.7,11.4-1.7c2.2,0,4.1,1.8,4.1,4.1
	s-1.8,4.1-4.1,4.1c-3,0-6.1,0.4-9,1.3C1764.7,14.5,1764.3,14.6,1763.9,14.6z"/>
<path class="st2" d="M1739.5,47.6c-2.2,0-4.1-1.8-4.1-4.1c0-11.4,5-22.2,13.7-29.5c1.5-1.6,4.1-1.7,5.7-0.2c1.6,1.5,1.7,4.1,0.2,5.7
	c-0.2,0.2-0.4,0.4-0.7,0.6c-6.9,5.8-10.8,14.3-10.8,23.3C1743.6,45.8,1741.8,47.6,1739.5,47.6z"/>
<path class="st3" d="M1724.3,130.7c-12.7,0-23.6-9.1-25.8-21.6c-0.4-2.2,1.1-4.4,3.4-4.8c2.2-0.4,4.4,1.1,4.8,3.4
	c1.6,9.4,10.3,15.8,19.7,14.7h0.6c2.2-0.3,4.3,1.3,4.6,3.6c0.3,2.2-1.3,4.3-3.6,4.6h-0.6C1726.2,130.7,1725.2,130.7,1724.3,130.7z"
	/>
<path class="st3" d="M1698.8,102.4c-1.4,0-2.8-0.7-3.5-1.9c-1.7-2.8-3.9-5.2-6.6-7.1c-1.8-1.4-2.1-3.9-0.7-5.7
	c1.1-1.4,3.1-1.9,4.7-1.2c3.8,2.5,7.1,5.9,9.5,9.8c1.2,1.9,0.6,4.4-1.3,5.6C1700.2,102.2,1699.5,102.4,1698.8,102.4z"/>
<ellipse transform="matrix(0.83 -0.5577 0.5577 0.83 269.1221 1009.787)" class="st4" cx="1791.2" cy="63.4" rx="30.5" ry="18.3"/>
<path class="st0" d="M535.7,345.7c8,1.1,16.1,0.5,23.8-1.7c18.6-5.4,32.5-20.3,34.9-36.3c1.3-8-0.3-16.3-4.5-23.2
	c-2.9-4.8-2.7-10.9,0.6-15.4c4.5-6.4,6.9-13.9,6.9-21.7c0-17.4-12.2-33.2-30.2-40.6c-8.2-3.2-14.5-9.8-17.4-18.1
	c-5.3-16.8-17.2-24.6-34.4-27.1c-15.5-2.2-29.5,2.8-36.8,12.5c-4.3,5.6-13.4,8.1-22.8,5.8c-5.8-1.4-11.7-2.2-17.6-2.3
	c-26-0.2-48.1,13.2-51.9,32.5c-1.2,6.5-0.4,13.1,2.3,19.1c4.5,10.3,0.4,21.2-10.2,28.9c-10.6,7.7-16.6,17.8-16.6,28.9
	c0,13.4,21.6,24,40,30.3c13.9,4.8,22.4,14.2,24.4,25.1c0,0.1,0,0.3,0,0.4c3.5,18.1,23.4,30.2,46.8,29.3c16.9-0.4,33-7.5,44.7-19.7
	C522.2,347.3,528.9,344.8,535.7,345.7z"/>
<circle class="st1" cx="510.1" cy="268.5" r="50.8"/>
<path class="st2" d="M499.9,239.6c-2.2,0-4-1.9-4-4.1c0-1.7,1.1-3.3,2.8-3.8c3.7-1.1,7.5-1.7,11.4-1.7c2.2,0,4.1,1.8,4.1,4.1
	c0,2.2-1.8,4.1-4.1,4.1c-3,0-6.1,0.4-9,1.3C500.7,239.5,500.3,239.6,499.9,239.6z"/>
<path class="st2" d="M475.5,272.6c-2.2,0-4.1-1.8-4.1-4.1c0-11.4,5-22.2,13.7-29.5c1.5-1.6,4.1-1.7,5.7-0.2c1.6,1.5,1.7,4.1,0.2,5.7
	c-0.2,0.2-0.4,0.4-0.7,0.6c-6.9,5.8-10.8,14.3-10.8,23.3C479.6,270.8,477.8,272.6,475.5,272.6z"/>
<path class="st3" d="M402.4,217.7c-2.2,0-4.1-1.8-4.1-4c0-0.8,0.2-1.6,0.7-2.3c5-7.8,12.2-14,20.8-17.8c2-1.1,4.4-0.4,5.5,1.6
	s0.4,4.4-1.6,5.5c-0.2,0.1-0.4,0.2-0.7,0.3c-7.1,3.1-13.2,8.3-17.4,14.9C404.9,217,403.7,217.7,402.4,217.7z"/>
<path class="st3" d="M447.1,197.4h-0.6c-3-0.3-6-0.3-9,0c-2.2,0.2-4.2-1.4-4.5-3.7c-0.2-2.2,1.4-4.2,3.7-4.5l0,0
	c3.6-0.4,7.3-0.4,10.9,0c2.2,0.2,3.9,2.1,3.8,4.3C451.3,195.9,449.3,197.6,447.1,197.4z"/>
<path class="st3" d="M460.3,355.7c-12.7,0-23.6-9.1-25.8-21.6c-0.4-2.2,1.1-4.4,3.4-4.8c2.2-0.4,4.4,1.1,4.8,3.4
	c1.6,9.4,10.3,15.8,19.7,14.7h0.6c2.2-0.3,4.3,1.3,4.6,3.6c0.3,2.2-1.3,4.3-3.6,4.6h-0.6C462.2,355.7,461.2,355.7,460.3,355.7z"/>
<path class="st3" d="M434.8,327.4c-1.4,0-2.8-0.7-3.5-1.9c-1.7-2.8-3.9-5.2-6.6-7.1c-1.8-1.4-2.1-3.9-0.7-5.7
	c1.1-1.4,3.1-1.9,4.7-1.2c3.8,2.5,7.1,5.9,9.5,9.8c1.2,1.9,0.6,4.4-1.3,5.6C436.2,327.2,435.5,327.4,434.8,327.4z"/>
<ellipse transform="matrix(0.83 -0.5577 0.5577 0.83 -71.2351 343.0443)" class="st4" cx="527.2" cy="288.4" rx="30.5" ry="18.3"/>
<path class="st0" d="M301.7,119.7c8,1.1,16.1,0.5,23.8-1.7c18.6-5.4,32.5-20.3,34.9-36.3c1.3-8-0.3-16.3-4.5-23.2
	c-2.9-4.8-2.7-10.9,0.6-15.4c4.5-6.4,6.9-13.9,6.9-21.7c0-17.4-12.2-33.2-30.2-40.6c-8.2-3.2-14.5-9.8-17.4-18.1
	c-5.3-16.8-17.2-24.6-34.4-27.1c-15.5-2.2-29.5,2.8-36.8,12.5c-4.3,5.6-13.4,8.1-22.8,5.8c-5.8-1.4-11.7-2.2-17.6-2.3
	c-26-0.2-48.1,13.2-51.9,32.5C151.1-9.6,151.9-3,154.6,3c4.5,10.3,0.4,21.2-10.2,28.9s-16.6,17.8-16.6,28.9c0,13.4,21.6,24,40,30.3
	c13.9,4.8,22.4,14.2,24.4,25.1c0,0.1,0,0.3,0,0.4c3.5,18.1,23.4,30.2,46.8,29.3c16.9-0.4,33-7.5,44.7-19.7
	C288.2,121.3,294.9,118.8,301.7,119.7z"/>
<circle class="st1" cx="276.1" cy="42.5" r="50.8"/>
<path class="st2" d="M265.9,13.6c-2.2,0-4-1.9-4-4.1c0-1.7,1.1-3.3,2.8-3.8c3.7-1.1,7.5-1.7,11.4-1.7c2.2,0,4.1,1.8,4.1,4.1
	s-1.8,4.1-4.1,4.1c-3,0-6.1,0.4-9,1.3C266.7,13.5,266.3,13.6,265.9,13.6z"/>
<path class="st2" d="M241.5,46.6c-2.2,0-4.1-1.8-4.1-4.1c0-11.4,5-22.2,13.7-29.5c1.5-1.6,4.1-1.7,5.7-0.2c1.6,1.5,1.7,4.1,0.2,5.7
	c-0.2,0.2-0.4,0.4-0.7,0.6c-6.9,5.8-10.8,14.3-10.8,23.3C245.6,44.8,243.8,46.6,241.5,46.6z"/>
<path class="st3" d="M226.3,129.7c-12.7,0-23.6-9.1-25.8-21.6c-0.4-2.2,1.1-4.4,3.4-4.8c2.2-0.4,4.4,1.1,4.8,3.4
	c1.6,9.4,10.3,15.8,19.7,14.7h0.6c2.2-0.3,4.3,1.3,4.6,3.6c0.3,2.2-1.3,4.3-3.6,4.6h-0.6C228.2,129.7,227.2,129.7,226.3,129.7z"/>
<path class="st3" d="M200.8,101.4c-1.4,0-2.8-0.7-3.5-1.9c-1.7-2.8-3.9-5.2-6.6-7.1c-1.8-1.4-2.1-3.9-0.7-5.7
	c1.1-1.4,3.1-1.9,4.7-1.2c3.8,2.5,7.1,5.9,9.5,9.8c1.2,1.9,0.6,4.4-1.3,5.6C202.2,101.2,201.5,101.4,200.8,101.4z"/>
<ellipse transform="matrix(0.83 -0.5577 0.5577 0.83 15.0382 174.1148)" class="st4" cx="293.2" cy="62.4" rx="30.5" ry="18.3"/>
<path class="st0" d="M301.7,619.7c8,1.1,16.1,0.5,23.8-1.7c18.6-5.4,32.5-20.3,34.9-36.3c1.3-8-0.3-16.3-4.5-23.2
	c-2.9-4.8-2.7-10.9,0.6-15.4c4.5-6.4,6.9-13.9,6.9-21.7c0-17.4-12.2-33.2-30.2-40.6c-8.2-3.2-14.5-9.8-17.4-18.1
	c-5.3-16.8-17.2-24.6-34.4-27.1c-15.5-2.2-29.5,2.8-36.8,12.5c-4.3,5.6-13.4,8.1-22.8,5.8c-5.8-1.4-11.7-2.2-17.6-2.3
	c-26-0.2-48.1,13.2-51.9,32.5c-1.2,6.5-0.4,13.1,2.3,19.1c4.5,10.3,0.4,21.2-10.2,28.9s-16.6,17.8-16.6,28.9c0,13.4,21.6,24,40,30.3
	c13.9,4.8,22.4,14.2,24.4,25.1c0,0.1,0,0.3,0,0.4c3.5,18.1,23.4,30.2,46.8,29.3c16.9-0.4,33-7.5,44.7-19.7
	C288.2,621.3,294.9,618.8,301.7,619.7z"/>
<circle class="st1" cx="276.1" cy="542.5" r="50.8"/>
<path class="st2" d="M265.9,513.6c-2.2,0-4-1.9-4-4.1c0-1.7,1.1-3.3,2.8-3.8c3.7-1.1,7.5-1.7,11.4-1.7c2.2,0,4.1,1.8,4.1,4.1
	c0,2.2-1.8,4.1-4.1,4.1c-3,0-6.1,0.4-9,1.3C266.7,513.5,266.3,513.6,265.9,513.6z"/>
<path class="st2" d="M241.5,546.6c-2.2,0-4.1-1.8-4.1-4.1c0-11.4,5-22.2,13.7-29.5c1.5-1.6,4.1-1.7,5.7-0.2c1.6,1.5,1.7,4.1,0.2,5.7
	c-0.2,0.2-0.4,0.4-0.7,0.6c-6.9,5.8-10.8,14.3-10.8,23.3C245.6,544.8,243.8,546.6,241.5,546.6z"/>
<path class="st3" d="M168.4,491.7c-2.2,0-4.1-1.8-4.1-4c0-0.8,0.2-1.6,0.7-2.3c5-7.8,12.2-14,20.8-17.8c2-1.1,4.4-0.4,5.5,1.6
	c1.1,2,0.4,4.4-1.6,5.5c-0.2,0.1-0.4,0.2-0.7,0.3c-7.1,3.1-13.2,8.3-17.4,14.9C170.9,491,169.7,491.7,168.4,491.7z"/>
<path class="st3" d="M213.1,471.4h-0.6c-3-0.3-6-0.3-9,0c-2.2,0.2-4.2-1.4-4.5-3.7c-0.2-2.2,1.4-4.2,3.7-4.5l0,0
	c3.6-0.4,7.3-0.4,10.9,0c2.2,0.2,3.9,2.1,3.8,4.3C217.3,469.9,215.3,471.6,213.1,471.4z"/>
<path class="st3" d="M226.3,629.7c-12.7,0-23.6-9.1-25.8-21.6c-0.4-2.2,1.1-4.4,3.4-4.8c2.2-0.4,4.4,1.1,4.8,3.4
	c1.6,9.4,10.3,15.8,19.7,14.7h0.6c2.2-0.3,4.3,1.3,4.6,3.6c0.3,2.2-1.3,4.3-3.6,4.6h-0.6C228.2,629.7,227.2,629.7,226.3,629.7z"/>
<path class="st3" d="M200.8,601.4c-1.4,0-2.8-0.7-3.5-1.9c-1.7-2.8-3.9-5.2-6.6-7.1c-1.8-1.4-2.1-3.9-0.7-5.7
	c1.1-1.4,3.1-1.9,4.7-1.2c3.8,2.5,7.1,5.9,9.5,9.8c1.2,1.9,0.6,4.4-1.3,5.6C202.2,601.2,201.5,601.4,200.8,601.4z"/>
<ellipse transform="matrix(0.83 -0.5577 0.5577 0.83 -263.8344 259.1086)" class="st4" cx="293.2" cy="562.4" rx="30.5" ry="18.3"/>
<path class="st0" d="M801.7,619.7c8,1.1,16.1,0.5,23.8-1.7c18.6-5.4,32.5-20.3,34.9-36.3c1.3-8-0.3-16.3-4.5-23.2
	c-2.9-4.8-2.7-10.9,0.6-15.4c4.5-6.4,6.9-13.9,6.9-21.7c0-17.4-12.2-33.2-30.2-40.6c-8.2-3.2-14.5-9.8-17.4-18.1
	c-5.3-16.8-17.2-24.6-34.4-27.1c-15.5-2.2-29.5,2.8-36.8,12.5c-4.3,5.6-13.4,8.1-22.8,5.8c-5.8-1.4-11.7-2.2-17.6-2.3
	c-26-0.2-48.1,13.2-51.9,32.5c-1.2,6.5-0.4,13.1,2.3,19.1c4.5,10.3,0.4,21.2-10.2,28.9c-10.6,7.7-16.6,17.8-16.6,28.9
	c0,13.4,21.6,24,40,30.3c13.9,4.8,22.4,14.2,24.4,25.1c0,0.1,0,0.3,0,0.4c3.5,18.1,23.4,30.2,46.8,29.3c16.9-0.4,33-7.5,44.7-19.7
	C788.2,621.3,794.9,618.8,801.7,619.7z"/>
<circle class="st1" cx="776.1" cy="542.5" r="50.8"/>
<path class="st2" d="M765.9,513.6c-2.2,0-4-1.9-4-4.1c0-1.7,1.1-3.3,2.8-3.8c3.7-1.1,7.5-1.7,11.4-1.7c2.2,0,4.1,1.8,4.1,4.1
	c0,2.2-1.8,4.1-4.1,4.1c-3,0-6.1,0.4-9,1.3C766.7,513.5,766.3,513.6,765.9,513.6z"/>
<path class="st2" d="M741.5,546.6c-2.2,0-4.1-1.8-4.1-4.1c0-11.4,5-22.2,13.7-29.5c1.5-1.6,4.1-1.7,5.7-0.2c1.6,1.5,1.7,4.1,0.2,5.7
	c-0.2,0.2-0.4,0.4-0.7,0.6c-6.9,5.8-10.8,14.3-10.8,23.3C745.6,544.8,743.8,546.6,741.5,546.6z"/>
<path class="st3" d="M668.4,491.7c-2.2,0-4.1-1.8-4.1-4c0-0.8,0.2-1.6,0.7-2.3c5-7.8,12.2-14,20.8-17.8c2-1.1,4.4-0.4,5.5,1.6
	c1.1,2,0.4,4.4-1.6,5.5c-0.2,0.1-0.4,0.2-0.7,0.3c-7.1,3.1-13.2,8.3-17.4,14.9C670.9,491,669.7,491.7,668.4,491.7z"/>
<path class="st3" d="M713.1,471.4h-0.6c-3-0.3-6-0.3-9,0c-2.2,0.2-4.2-1.4-4.5-3.7c-0.2-2.2,1.4-4.2,3.7-4.5l0,0
	c3.6-0.4,7.3-0.4,10.9,0c2.2,0.2,3.9,2.1,3.8,4.3C717.3,469.9,715.3,471.6,713.1,471.4z"/>
<path class="st3" d="M726.3,629.7c-12.7,0-23.6-9.1-25.8-21.6c-0.4-2.2,1.1-4.4,3.4-4.8c2.2-0.4,4.4,1.1,4.8,3.4
	c1.6,9.4,10.3,15.8,19.7,14.7h0.6c2.2-0.3,4.3,1.3,4.6,3.6c0.3,2.2-1.3,4.3-3.6,4.6h-0.6C728.2,629.7,727.2,629.7,726.3,629.7z"/>
<path class="st3" d="M700.8,601.4c-1.4,0-2.8-0.7-3.5-1.9c-1.7-2.8-3.9-5.2-6.6-7.1c-1.8-1.4-2.1-3.9-0.7-5.7
	c1.1-1.4,3.1-1.9,4.7-1.2c3.8,2.5,7.1,5.9,9.5,9.8c1.2,1.9,0.6,4.4-1.3,5.6C702.2,601.2,701.5,601.4,700.8,601.4z"/>
<ellipse transform="matrix(0.83 -0.5577 0.5577 0.83 -178.8405 537.9812)" class="st4" cx="793.2" cy="562.4" rx="30.5" ry="18.3"/>
<path class="st0" d="M1301.7,619.7c8,1.1,16.1,0.5,23.8-1.7c18.6-5.4,32.5-20.3,34.9-36.3c1.3-8-0.3-16.3-4.5-23.2
	c-2.9-4.8-2.7-10.9,0.6-15.4c4.5-6.4,6.9-13.9,6.9-21.7c0-17.4-12.2-33.2-30.2-40.6c-8.2-3.2-14.5-9.8-17.4-18.1
	c-5.3-16.8-17.2-24.6-34.4-27.1c-15.5-2.2-29.5,2.8-36.8,12.5c-4.3,5.6-13.4,8.1-22.8,5.8c-5.8-1.4-11.7-2.2-17.6-2.3
	c-26-0.2-48.1,13.2-51.9,32.5c-1.2,6.5-0.4,13.1,2.3,19.1c4.5,10.3,0.4,21.2-10.2,28.9s-16.6,17.8-16.6,28.9c0,13.4,21.6,24,40,30.3
	c13.9,4.8,22.4,14.2,24.4,25.1c0,0.1,0,0.3,0,0.4c3.5,18.1,23.4,30.2,46.8,29.3c16.9-0.4,33-7.5,44.7-19.7
	C1288.2,621.3,1294.9,618.8,1301.7,619.7z"/>
<circle class="st1" cx="1276.1" cy="542.5" r="50.8"/>
<path class="st2" d="M1265.9,513.6c-2.2,0-4-1.9-4-4.1c0-1.7,1.1-3.3,2.8-3.8c3.7-1.1,7.5-1.7,11.4-1.7c2.2,0,4.1,1.8,4.1,4.1
	c0,2.2-1.8,4.1-4.1,4.1c-3,0-6.1,0.4-9,1.3C1266.7,513.5,1266.3,513.6,1265.9,513.6z"/>
<path class="st2" d="M1241.5,546.6c-2.2,0-4.1-1.8-4.1-4.1c0-11.4,5-22.2,13.7-29.5c1.5-1.6,4.1-1.7,5.7-0.2
	c1.6,1.5,1.7,4.1,0.2,5.7c-0.2,0.2-0.4,0.4-0.7,0.6c-6.9,5.8-10.8,14.3-10.8,23.3C1245.6,544.8,1243.8,546.6,1241.5,546.6z"/>
<path class="st3" d="M1168.4,491.7c-2.2,0-4.1-1.8-4.1-4c0-0.8,0.2-1.6,0.7-2.3c5-7.8,12.2-14,20.8-17.8c2-1.1,4.4-0.4,5.5,1.6
	c1.1,2,0.4,4.4-1.6,5.5c-0.2,0.1-0.4,0.2-0.7,0.3c-7.1,3.1-13.2,8.3-17.4,14.9C1170.9,491,1169.7,491.7,1168.4,491.7z"/>
<path class="st3" d="M1213.1,471.4h-0.6c-3-0.3-6-0.3-9,0c-2.2,0.2-4.2-1.4-4.5-3.7c-0.2-2.2,1.4-4.2,3.7-4.5l0,0
	c3.6-0.4,7.3-0.4,10.9,0c2.2,0.2,3.9,2.1,3.8,4.3C1217.3,469.9,1215.3,471.6,1213.1,471.4z"/>
<path class="st3" d="M1226.3,629.7c-12.7,0-23.6-9.1-25.8-21.6c-0.4-2.2,1.1-4.4,3.4-4.8c2.2-0.4,4.4,1.1,4.8,3.4
	c1.6,9.4,10.3,15.8,19.7,14.7h0.6c2.2-0.3,4.3,1.3,4.6,3.6c0.3,2.2-1.3,4.3-3.6,4.6h-0.6C1228.2,629.7,1227.2,629.7,1226.3,629.7z"
	/>
<path class="st3" d="M1200.8,601.4c-1.4,0-2.8-0.7-3.5-1.9c-1.7-2.8-3.9-5.2-6.6-7.1c-1.8-1.4-2.1-3.9-0.7-5.7
	c1.1-1.4,3.1-1.9,4.7-1.2c3.8,2.5,7.1,5.9,9.5,9.8c1.2,1.9,0.6,4.4-1.3,5.6C1202.2,601.2,1201.5,601.4,1200.8,601.4z"/>
<ellipse transform="matrix(0.83 -0.5577 0.5577 0.83 -93.8467 816.8538)" class="st4" cx="1293.2" cy="562.4" rx="30.5" ry="18.3"/>
<path class="st0" d="M1801.7,619.7c8,1.1,16.1,0.5,23.8-1.7c18.6-5.4,32.5-20.3,34.9-36.3c1.3-8-0.3-16.3-4.5-23.2
	c-2.9-4.8-2.7-10.9,0.6-15.4c4.5-6.4,6.9-13.9,6.9-21.7c0-17.4-12.2-33.2-30.2-40.6c-8.2-3.2-14.5-9.8-17.4-18.1
	c-5.3-16.8-17.2-24.6-34.4-27.1c-15.5-2.2-29.5,2.8-36.8,12.5c-4.3,5.6-13.4,8.1-22.8,5.8c-5.8-1.4-11.7-2.2-17.6-2.3
	c-26-0.2-48.1,13.2-51.9,32.5c-1.2,6.5-0.4,13.1,2.3,19.1c4.5,10.3,0.4,21.2-10.2,28.9s-16.6,17.8-16.6,28.9c0,13.4,21.6,24,40,30.3
	c13.9,4.8,22.4,14.2,24.4,25.1c0,0.1,0,0.3,0,0.4c3.5,18.1,23.4,30.2,46.8,29.3c16.9-0.4,33-7.5,44.7-19.7
	C1788.2,621.3,1794.9,618.8,1801.7,619.7z"/>
<circle class="st1" cx="1776.1" cy="542.5" r="50.8"/>
<path class="st2" d="M1765.9,513.6c-2.2,0-4-1.9-4-4.1c0-1.7,1.1-3.3,2.8-3.8c3.7-1.1,7.5-1.7,11.4-1.7c2.2,0,4.1,1.8,4.1,4.1
	c0,2.2-1.8,4.1-4.1,4.1c-3,0-6.1,0.4-9,1.3C1766.7,513.5,1766.3,513.6,1765.9,513.6z"/>
<path class="st2" d="M1741.5,546.6c-2.2,0-4.1-1.8-4.1-4.1c0-11.4,5-22.2,13.7-29.5c1.5-1.6,4.1-1.7,5.7-0.2
	c1.6,1.5,1.7,4.1,0.2,5.7c-0.2,0.2-0.4,0.4-0.7,0.6c-6.9,5.8-10.8,14.3-10.8,23.3C1745.6,544.8,1743.8,546.6,1741.5,546.6z"/>
<path class="st3" d="M1668.4,491.7c-2.2,0-4.1-1.8-4.1-4c0-0.8,0.2-1.6,0.7-2.3c5-7.8,12.2-14,20.8-17.8c2-1.1,4.4-0.4,5.5,1.6
	c1.1,2,0.4,4.4-1.6,5.5c-0.2,0.1-0.4,0.2-0.7,0.3c-7.1,3.1-13.2,8.3-17.4,14.9C1670.9,491,1669.7,491.7,1668.4,491.7z"/>
<path class="st3" d="M1713.1,471.4h-0.6c-3-0.3-6-0.3-9,0c-2.2,0.2-4.2-1.4-4.5-3.7c-0.2-2.2,1.4-4.2,3.7-4.5l0,0
	c3.6-0.4,7.3-0.4,10.9,0c2.2,0.2,3.9,2.1,3.8,4.3C1717.3,469.9,1715.3,471.6,1713.1,471.4z"/>
<path class="st3" d="M1726.3,629.7c-12.7,0-23.6-9.1-25.8-21.6c-0.4-2.2,1.1-4.4,3.4-4.8c2.2-0.4,4.4,1.1,4.8,3.4
	c1.6,9.4,10.3,15.8,19.7,14.7h0.6c2.2-0.3,4.3,1.3,4.6,3.6c0.3,2.2-1.3,4.3-3.6,4.6h-0.6C1728.2,629.7,1727.2,629.7,1726.3,629.7z"
	/>
<path class="st3" d="M1700.8,601.4c-1.4,0-2.8-0.7-3.5-1.9c-1.7-2.8-3.9-5.2-6.6-7.1c-1.8-1.4-2.1-3.9-0.7-5.7
	c1.1-1.4,3.1-1.9,4.7-1.2c3.8,2.5,7.1,5.9,9.5,9.8c1.2,1.9,0.6,4.4-1.3,5.6C1702.2,601.2,1701.5,601.4,1700.8,601.4z"/>
<ellipse transform="matrix(0.83 -0.5577 0.5577 0.83 -8.8528 1095.7263)" class="st4" cx="1793.2" cy="562.4" rx="30.5" ry="18.3"/>
<path class="st0" d="M1801.7,1119.7c8,1.1,16.1,0.5,23.8-1.7c18.6-5.4,32.5-20.3,34.9-36.3c1.3-8-0.3-16.3-4.5-23.2
	c-2.9-4.8-2.7-10.9,0.6-15.4c4.5-6.4,6.9-13.9,6.9-21.7c0-17.4-12.2-33.2-30.2-40.6c-8.2-3.2-14.5-9.8-17.4-18.1
	c-5.3-16.8-17.2-24.6-34.4-27.1c-15.5-2.2-29.5,2.8-36.8,12.5c-4.3,5.6-13.4,8.1-22.8,5.8c-5.8-1.4-11.7-2.2-17.6-2.3
	c-26-0.2-48.1,13.2-51.9,32.5c-1.2,6.5-0.4,13.1,2.3,19.1c4.5,10.3,0.4,21.2-10.2,28.9s-16.6,17.8-16.6,28.9c0,13.4,21.6,24,40,30.3
	c13.9,4.8,22.4,14.2,24.4,25.1c0,0.1,0,0.3,0,0.4c3.5,18.1,23.4,30.2,46.8,29.3c16.9-0.4,33-7.5,44.7-19.7
	C1788.2,1121.3,1794.9,1118.8,1801.7,1119.7z"/>
<circle class="st1" cx="1776.1" cy="1042.5" r="50.8"/>
<path class="st2" d="M1765.9,1013.6c-2.2,0-4-1.9-4-4.1c0-1.7,1.1-3.3,2.8-3.8c3.7-1.1,7.5-1.7,11.4-1.7c2.2,0,4.1,1.8,4.1,4.1
	c0,2.2-1.8,4.1-4.1,4.1c-3,0-6.1,0.4-9,1.3C1766.7,1013.5,1766.3,1013.6,1765.9,1013.6z"/>
<path class="st2" d="M1741.5,1046.6c-2.2,0-4.1-1.8-4.1-4.1c0-11.4,5-22.2,13.7-29.5c1.5-1.6,4.1-1.7,5.7-0.2
	c1.6,1.5,1.7,4.1,0.2,5.7c-0.2,0.2-0.4,0.4-0.7,0.6c-6.9,5.8-10.8,14.3-10.8,23.3C1745.6,1044.8,1743.8,1046.6,1741.5,1046.6z"/>
<path class="st3" d="M1668.4,991.7c-2.2,0-4.1-1.8-4.1-4c0-0.8,0.2-1.6,0.7-2.3c5-7.8,12.2-14,20.8-17.8c2-1.1,4.4-0.4,5.5,1.6
	c1.1,2,0.4,4.4-1.6,5.5c-0.2,0.1-0.4,0.2-0.7,0.3c-7.1,3.1-13.2,8.3-17.4,14.9C1670.9,991,1669.7,991.7,1668.4,991.7z"/>
<path class="st3" d="M1713.1,971.4h-0.6c-3-0.3-6-0.3-9,0c-2.2,0.2-4.2-1.4-4.5-3.7c-0.2-2.2,1.4-4.2,3.7-4.5l0,0
	c3.6-0.4,7.3-0.4,10.9,0c2.2,0.2,3.9,2.1,3.8,4.3C1717.3,969.9,1715.3,971.6,1713.1,971.4z"/>
<ellipse transform="matrix(0.83 -0.5577 0.5577 0.83 -287.7254 1180.7202)" class="st4" cx="1793.2" cy="1062.4" rx="30.5" ry="18.3"/>
<path class="st0" d="M1301.7,1119.7c8,1.1,16.1,0.5,23.8-1.7c18.6-5.4,32.5-20.3,34.9-36.3c1.3-8-0.3-16.3-4.5-23.2
	c-2.9-4.8-2.7-10.9,0.6-15.4c4.5-6.4,6.9-13.9,6.9-21.7c0-17.4-12.2-33.2-30.2-40.6c-8.2-3.2-14.5-9.8-17.4-18.1
	c-5.3-16.8-17.2-24.6-34.4-27.1c-15.5-2.2-29.5,2.8-36.8,12.5c-4.3,5.6-13.4,8.1-22.8,5.8c-5.8-1.4-11.7-2.2-17.6-2.3
	c-26-0.2-48.1,13.2-51.9,32.5c-1.2,6.5-0.4,13.1,2.3,19.1c4.5,10.3,0.4,21.2-10.2,28.9s-16.6,17.8-16.6,28.9c0,13.4,21.6,24,40,30.3
	c13.9,4.8,22.4,14.2,24.4,25.1c0,0.1,0,0.3,0,0.4c3.5,18.1,23.4,30.2,46.8,29.3c16.9-0.4,33-7.5,44.7-19.7
	C1288.2,1121.3,1294.9,1118.8,1301.7,1119.7z"/>
<circle class="st1" cx="1276.1" cy="1042.5" r="50.8"/>
<path class="st2" d="M1265.9,1013.6c-2.2,0-4-1.9-4-4.1c0-1.7,1.1-3.3,2.8-3.8c3.7-1.1,7.5-1.7,11.4-1.7c2.2,0,4.1,1.8,4.1,4.1
	c0,2.2-1.8,4.1-4.1,4.1c-3,0-6.1,0.4-9,1.3C1266.7,1013.5,1266.3,1013.6,1265.9,1013.6z"/>
<path class="st2" d="M1241.5,1046.6c-2.2,0-4.1-1.8-4.1-4.1c0-11.4,5-22.2,13.7-29.5c1.5-1.6,4.1-1.7,5.7-0.2
	c1.6,1.5,1.7,4.1,0.2,5.7c-0.2,0.2-0.4,0.4-0.7,0.6c-6.9,5.8-10.8,14.3-10.8,23.3C1245.6,1044.8,1243.8,1046.6,1241.5,1046.6z"/>
<path class="st3" d="M1168.4,991.7c-2.2,0-4.1-1.8-4.1-4c0-0.8,0.2-1.6,0.7-2.3c5-7.8,12.2-14,20.8-17.8c2-1.1,4.4-0.4,5.5,1.6
	c1.1,2,0.4,4.4-1.6,5.5c-0.2,0.1-0.4,0.2-0.7,0.3c-7.1,3.1-13.2,8.3-17.4,14.9C1170.9,991,1169.7,991.7,1168.4,991.7z"/>
<path class="st3" d="M1213.1,971.4h-0.6c-3-0.3-6-0.3-9,0c-2.2,0.2-4.2-1.4-4.5-3.7c-0.2-2.2,1.4-4.2,3.7-4.5l0,0
	c3.6-0.4,7.3-0.4,10.9,0c2.2,0.2,3.9,2.1,3.8,4.3C1217.3,969.9,1215.3,971.6,1213.1,971.4z"/>
<ellipse transform="matrix(0.83 -0.5577 0.5577 0.83 -372.7192 901.8477)" class="st4" cx="1293.2" cy="1062.4" rx="30.5" ry="18.3"/>
<path class="st0" d="M801.7,1119.7c8,1.1,16.1,0.5,23.8-1.7c18.6-5.4,32.5-20.3,34.9-36.3c1.3-8-0.3-16.3-4.5-23.2
	c-2.9-4.8-2.7-10.9,0.6-15.4c4.5-6.4,6.9-13.9,6.9-21.7c0-17.4-12.2-33.2-30.2-40.6c-8.2-3.2-14.5-9.8-17.4-18.1
	c-5.3-16.8-17.2-24.6-34.4-27.1c-15.5-2.2-29.5,2.8-36.8,12.5c-4.3,5.6-13.4,8.1-22.8,5.8c-5.8-1.4-11.7-2.2-17.6-2.3
	c-26-0.2-48.1,13.2-51.9,32.5c-1.2,6.5-0.4,13.1,2.3,19.1c4.5,10.3,0.4,21.2-10.2,28.9c-10.6,7.7-16.6,17.8-16.6,28.9
	c0,13.4,21.6,24,40,30.3c13.9,4.8,22.4,14.2,24.4,25.1c0,0.1,0,0.3,0,0.4c3.5,18.1,23.4,30.2,46.8,29.3c16.9-0.4,33-7.5,44.7-19.7
	C788.2,1121.3,794.9,1118.8,801.7,1119.7z"/>
<circle class="st1" cx="776.1" cy="1042.5" r="50.8"/>
<path class="st2" d="M765.9,1013.6c-2.2,0-4-1.9-4-4.1c0-1.7,1.1-3.3,2.8-3.8c3.7-1.1,7.5-1.7,11.4-1.7c2.2,0,4.1,1.8,4.1,4.1
	c0,2.2-1.8,4.1-4.1,4.1c-3,0-6.1,0.4-9,1.3C766.7,1013.5,766.3,1013.6,765.9,1013.6z"/>
<path class="st2" d="M741.5,1046.6c-2.2,0-4.1-1.8-4.1-4.1c0-11.4,5-22.2,13.7-29.5c1.5-1.6,4.1-1.7,5.7-0.2
	c1.6,1.5,1.7,4.1,0.2,5.7c-0.2,0.2-0.4,0.4-0.7,0.6c-6.9,5.8-10.8,14.3-10.8,23.3C745.6,1044.8,743.8,1046.6,741.5,1046.6z"/>
<path class="st3" d="M668.4,991.7c-2.2,0-4.1-1.8-4.1-4c0-0.8,0.2-1.6,0.7-2.3c5-7.8,12.2-14,20.8-17.8c2-1.1,4.4-0.4,5.5,1.6
	c1.1,2,0.4,4.4-1.6,5.5c-0.2,0.1-0.4,0.2-0.7,0.3c-7.1,3.1-13.2,8.3-17.4,14.9C670.9,991,669.7,991.7,668.4,991.7z"/>
<path class="st3" d="M713.1,971.4h-0.6c-3-0.3-6-0.3-9,0c-2.2,0.2-4.2-1.4-4.5-3.7c-0.2-2.2,1.4-4.2,3.7-4.5l0,0
	c3.6-0.4,7.3-0.4,10.9,0c2.2,0.2,3.9,2.1,3.8,4.3C717.3,969.9,715.3,971.6,713.1,971.4z"/>
<ellipse transform="matrix(0.83 -0.5577 0.5577 0.83 -457.7131 622.9751)" class="st4" cx="793.2" cy="1062.4" rx="30.5" ry="18.3"/>
<path class="st0" d="M301.7,1119.7c8,1.1,16.1,0.5,23.8-1.7c18.6-5.4,32.5-20.3,34.9-36.3c1.3-8-0.3-16.3-4.5-23.2
	c-2.9-4.8-2.7-10.9,0.6-15.4c4.5-6.4,6.9-13.9,6.9-21.7c0-17.4-12.2-33.2-30.2-40.6c-8.2-3.2-14.5-9.8-17.4-18.1
	c-5.3-16.8-17.2-24.6-34.4-27.1c-15.5-2.2-29.5,2.8-36.8,12.5c-4.3,5.6-13.4,8.1-22.8,5.8c-5.8-1.4-11.7-2.2-17.6-2.3
	c-26-0.2-48.1,13.2-51.9,32.5c-1.2,6.5-0.4,13.1,2.3,19.1c4.5,10.3,0.4,21.2-10.2,28.9s-16.6,17.8-16.6,28.9c0,13.4,21.6,24,40,30.3
	c13.9,4.8,22.4,14.2,24.4,25.1c0,0.1,0,0.3,0,0.4c3.5,18.1,23.4,30.2,46.8,29.3c16.9-0.4,33-7.5,44.7-19.7
	C288.2,1121.3,294.9,1118.8,301.7,1119.7z"/>
<circle class="st1" cx="276.1" cy="1042.5" r="50.8"/>
<path class="st2" d="M265.9,1013.6c-2.2,0-4-1.9-4-4.1c0-1.7,1.1-3.3,2.8-3.8c3.7-1.1,7.5-1.7,11.4-1.7c2.2,0,4.1,1.8,4.1,4.1
	c0,2.2-1.8,4.1-4.1,4.1c-3,0-6.1,0.4-9,1.3C266.7,1013.5,266.3,1013.6,265.9,1013.6z"/>
<path class="st2" d="M241.5,1046.6c-2.2,0-4.1-1.8-4.1-4.1c0-11.4,5-22.2,13.7-29.5c1.5-1.6,4.1-1.7,5.7-0.2
	c1.6,1.5,1.7,4.1,0.2,5.7c-0.2,0.2-0.4,0.4-0.7,0.6c-6.9,5.8-10.8,14.3-10.8,23.3C245.6,1044.8,243.8,1046.6,241.5,1046.6z"/>
<path class="st3" d="M168.4,991.7c-2.2,0-4.1-1.8-4.1-4c0-0.8,0.2-1.6,0.7-2.3c5-7.8,12.2-14,20.8-17.8c2-1.1,4.4-0.4,5.5,1.6
	c1.1,2,0.4,4.4-1.6,5.5c-0.2,0.1-0.4,0.2-0.7,0.3c-7.1,3.1-13.2,8.3-17.4,14.9C170.9,991,169.7,991.7,168.4,991.7z"/>
<path class="st3" d="M213.1,971.4h-0.6c-3-0.3-6-0.3-9,0c-2.2,0.2-4.2-1.4-4.5-3.7c-0.2-2.2,1.4-4.2,3.7-4.5l0,0
	c3.6-0.4,7.3-0.4,10.9,0c2.2,0.2,3.9,2.1,3.8,4.3C217.3,969.9,215.3,971.6,213.1,971.4z"/>
<ellipse transform="matrix(0.83 -0.5577 0.5577 0.83 -542.707 344.1025)" class="st4" cx="293.2" cy="1062.4" rx="30.5" ry="18.3"/>
<path class="st0" d="M35.7,345.7c8,1.1,16.1,0.5,23.8-1.7c18.6-5.4,32.5-20.3,34.9-36.3c1.3-8-0.3-16.3-4.5-23.2
	c-2.9-4.8-2.7-10.9,0.6-15.4c4.5-6.4,6.9-13.9,6.9-21.7c0-17.4-12.2-33.2-30.2-40.6c-8.2-3.2-14.5-9.8-17.4-18.1
	c-5.3-16.8-17.2-24.6-34.4-27.1C0,159.2-14,164.3-21.4,173.9c-4.3,5.6-13.4,8.1-22.8,5.8c-5.8-1.4-11.7-2.2-17.6-2.3
	c-26-0.2-48.1,13.2-51.9,32.5c-1.2,6.5-0.4,13.1,2.3,19.1c4.5,10.3,0.4,21.2-10.2,28.9c-10.6,7.7-16.6,17.8-16.6,28.9
	c0,13.4,21.6,24,40,30.3c13.9,4.8,22.4,14.2,24.4,25.1c0,0.1,0,0.3,0,0.4c3.5,18.1,23.4,30.2,46.8,29.3c16.9-0.4,33-7.5,44.7-19.7
	C22.2,347.3,28.9,344.8,35.7,345.7z"/>
<circle class="st1" cx="10.1" cy="268.5" r="50.8"/>
<path class="st2" d="M-0.1,239.6c-2.2,0-4-1.9-4-4.1c0-1.7,1.1-3.3,2.8-3.8c3.7-1.1,7.5-1.7,11.4-1.7c2.2,0,4.1,1.8,4.1,4.1
	c0,2.2-1.8,4.1-4.1,4.1c-3,0-6.1,0.4-9,1.3C0.7,239.5,0.3,239.6-0.1,239.6z"/>
<ellipse transform="matrix(0.83 -0.5577 0.5577 0.83 -156.229 64.1718)" class="st4" cx="27.2" cy="288.4" rx="30.5" ry="18.3"/>
<path class="st0" d="M35.7,845.7c8,1.1,16.1,0.5,23.8-1.7c18.6-5.4,32.5-20.3,34.9-36.3c1.3-8-0.3-16.3-4.5-23.2
	c-2.9-4.8-2.7-10.9,0.6-15.4c4.5-6.4,6.9-13.9,6.9-21.7c0-17.4-12.2-33.2-30.2-40.6c-8.2-3.2-14.5-9.8-17.4-18.1
	c-5.3-16.8-17.2-24.6-34.4-27.1C0,659.2-14,664.3-21.4,673.9c-4.3,5.6-13.4,8.1-22.8,5.8c-5.8-1.4-11.7-2.2-17.6-2.3
	c-26-0.2-48.1,13.2-51.9,32.5c-1.2,6.5-0.4,13.1,2.3,19.1c4.5,10.3,0.4,21.2-10.2,28.9s-16.6,17.8-16.6,28.9c0,13.4,21.6,24,40,30.3
	c13.9,4.8,22.4,14.2,24.4,25.1c0,0.1,0,0.3,0,0.4c3.5,18.1,23.4,30.2,46.8,29.3c16.9-0.4,33-7.5,44.7-19.7
	C22.2,847.3,28.9,844.8,35.7,845.7z"/>
<circle class="st1" cx="10.1" cy="768.5" r="50.8"/>
<path class="st2" d="M-0.1,739.6c-2.2,0-4-1.9-4-4.1c0-1.7,1.1-3.3,2.8-3.8c3.7-1.1,7.5-1.7,11.4-1.7c2.2,0,4.1,1.8,4.1,4.1
	c0,2.2-1.8,4.1-4.1,4.1c-3,0-6.1,0.4-9,1.3C0.7,739.5,0.3,739.6-0.1,739.6z"/>
<ellipse transform="matrix(0.83 -0.5577 0.5577 0.83 -435.1016 149.1656)" class="st4" cx="27.2" cy="788.4" rx="30.5" ry="18.3"/>
<path class="st0" d="M535.7,845.7c8,1.1,16.1,0.5,23.8-1.7c18.6-5.4,32.5-20.3,34.9-36.3c1.3-8-0.3-16.3-4.5-23.2
	c-2.9-4.8-2.7-10.9,0.6-15.4c4.5-6.4,6.9-13.9,6.9-21.7c0-17.4-12.2-33.2-30.2-40.6c-8.2-3.2-14.5-9.8-17.4-18.1
	c-5.3-16.8-17.2-24.6-34.4-27.1c-15.5-2.2-29.5,2.8-36.8,12.5c-4.3,5.6-13.4,8.1-22.8,5.8c-5.8-1.4-11.7-2.2-17.6-2.3
	c-26-0.2-48.1,13.2-51.9,32.5c-1.2,6.5-0.4,13.1,2.3,19.1c4.5,10.3,0.4,21.2-10.2,28.9s-16.6,17.8-16.6,28.9c0,13.4,21.6,24,40,30.3
	c13.9,4.8,22.4,14.2,24.4,25.1c0,0.1,0,0.3,0,0.4c3.5,18.1,23.4,30.2,46.8,29.3c16.9-0.4,33-7.5,44.7-19.7
	C522.2,847.3,528.9,844.8,535.7,845.7z"/>
<circle class="st1" cx="510.1" cy="768.5" r="50.8"/>
<path class="st2" d="M499.9,739.6c-2.2,0-4-1.9-4-4.1c0-1.7,1.1-3.3,2.8-3.8c3.7-1.1,7.5-1.7,11.4-1.7c2.2,0,4.1,1.8,4.1,4.1
	c0,2.2-1.8,4.1-4.1,4.1c-3,0-6.1,0.4-9,1.3C500.7,739.5,500.3,739.6,499.9,739.6z"/>
<path class="st2" d="M475.5,772.6c-2.2,0-4.1-1.8-4.1-4.1c0-11.4,5-22.2,13.7-29.5c1.5-1.6,4.1-1.7,5.7-0.2c1.6,1.5,1.7,4.1,0.2,5.7
	c-0.2,0.2-0.4,0.4-0.7,0.6c-6.9,5.8-10.8,14.3-10.8,23.3C479.6,770.8,477.8,772.6,475.5,772.6z"/>
<path class="st3" d="M402.4,717.7c-2.2,0-4.1-1.8-4.1-4c0-0.8,0.2-1.6,0.7-2.3c5-7.8,12.2-14,20.8-17.8c2-1.1,4.4-0.4,5.5,1.6
	c1.1,2,0.4,4.4-1.6,5.5c-0.2,0.1-0.4,0.2-0.7,0.3c-7.1,3.1-13.2,8.3-17.4,14.9C404.9,717,403.7,717.7,402.4,717.7z"/>
<path class="st3" d="M447.1,697.4h-0.6c-3-0.3-6-0.3-9,0c-2.2,0.2-4.2-1.4-4.5-3.7c-0.2-2.2,1.4-4.2,3.7-4.5l0,0
	c3.6-0.4,7.3-0.4,10.9,0c2.2,0.2,3.9,2.1,3.8,4.3C451.3,695.9,449.3,697.6,447.1,697.4z"/>
<path class="st3" d="M460.3,855.7c-12.7,0-23.6-9.1-25.8-21.6c-0.4-2.2,1.1-4.4,3.4-4.8c2.2-0.4,4.4,1.1,4.8,3.4
	c1.6,9.4,10.3,15.8,19.7,14.7h0.6c2.2-0.3,4.3,1.3,4.6,3.6c0.3,2.2-1.3,4.3-3.6,4.6h-0.6C462.2,855.7,461.2,855.7,460.3,855.7z"/>
<path class="st3" d="M434.8,827.4c-1.4,0-2.8-0.7-3.5-1.9c-1.7-2.8-3.9-5.2-6.6-7.1c-1.8-1.4-2.1-3.9-0.7-5.7
	c1.1-1.4,3.1-1.9,4.7-1.2c3.8,2.5,7.1,5.9,9.5,9.8c1.2,1.9,0.6,4.4-1.3,5.6C436.2,827.2,435.5,827.4,434.8,827.4z"/>
<ellipse transform="matrix(0.83 -0.5577 0.5577 0.83 -350.1077 428.0382)" class="st4" cx="527.2" cy="788.4" rx="30.5" ry="18.3"/>
<path class="st0" d="M1035.7,845.7c8,1.1,16.1,0.5,23.8-1.7c18.6-5.4,32.5-20.3,34.9-36.3c1.3-8-0.3-16.3-4.5-23.2
	c-2.9-4.8-2.7-10.9,0.6-15.4c4.5-6.4,6.9-13.9,6.9-21.7c0-17.4-12.2-33.2-30.2-40.6c-8.2-3.2-14.5-9.8-17.4-18.1
	c-5.3-16.8-17.2-24.6-34.4-27.1c-15.5-2.2-29.5,2.8-36.8,12.5c-4.3,5.6-13.4,8.1-22.8,5.8c-5.8-1.4-11.7-2.2-17.6-2.3
	c-26-0.2-48.1,13.2-51.9,32.5c-1.2,6.5-0.4,13.1,2.3,19.1c4.5,10.3,0.4,21.2-10.2,28.9c-10.6,7.7-16.6,17.8-16.6,28.9
	c0,13.4,21.6,24,40,30.3c13.9,4.8,22.4,14.2,24.4,25.1c0,0.1,0,0.3,0,0.4c3.5,18.1,23.4,30.2,46.8,29.3c16.9-0.4,33-7.5,44.7-19.7
	C1022.2,847.3,1028.9,844.8,1035.7,845.7z"/>
<circle class="st1" cx="1010.1" cy="768.5" r="50.8"/>
<path class="st2" d="M999.9,739.6c-2.2,0-4-1.9-4-4.1c0-1.7,1.1-3.3,2.8-3.8c3.7-1.1,7.5-1.7,11.4-1.7c2.2,0,4.1,1.8,4.1,4.1
	c0,2.2-1.8,4.1-4.1,4.1c-3,0-6.1,0.4-9,1.3C1000.7,739.5,1000.3,739.6,999.9,739.6z"/>
<path class="st2" d="M975.5,772.6c-2.2,0-4.1-1.8-4.1-4.1c0-11.4,5-22.2,13.7-29.5c1.5-1.6,4.1-1.7,5.7-0.2c1.6,1.5,1.7,4.1,0.2,5.7
	c-0.2,0.2-0.4,0.4-0.7,0.6c-6.9,5.8-10.8,14.3-10.8,23.3C979.6,770.8,977.8,772.6,975.5,772.6z"/>
<path class="st3" d="M902.4,717.7c-2.2,0-4.1-1.8-4.1-4c0-0.8,0.2-1.6,0.7-2.3c5-7.8,12.2-14,20.8-17.8c2-1.1,4.4-0.4,5.5,1.6
	c1.1,2,0.4,4.4-1.6,5.5c-0.2,0.1-0.4,0.2-0.7,0.3c-7.1,3.1-13.2,8.3-17.4,14.9C904.9,717,903.7,717.7,902.4,717.7z"/>
<path class="st3" d="M947.1,697.4h-0.6c-3-0.3-6-0.3-9,0c-2.2,0.2-4.2-1.4-4.5-3.7c-0.2-2.2,1.4-4.2,3.7-4.5l0,0
	c3.6-0.4,7.3-0.4,10.9,0c2.2,0.2,3.9,2.1,3.8,4.3C951.3,695.9,949.3,697.6,947.1,697.4z"/>
<path class="st3" d="M960.3,855.7c-12.7,0-23.6-9.1-25.8-21.6c-0.4-2.2,1.1-4.4,3.4-4.8c2.2-0.4,4.4,1.1,4.8,3.4
	c1.6,9.4,10.3,15.8,19.7,14.7h0.6c2.2-0.3,4.3,1.3,4.6,3.6c0.3,2.2-1.3,4.3-3.6,4.6h-0.6C962.2,855.7,961.2,855.7,960.3,855.7z"/>
<path class="st3" d="M934.8,827.4c-1.4,0-2.8-0.7-3.5-1.9c-1.7-2.8-3.9-5.2-6.6-7.1c-1.8-1.4-2.1-3.9-0.7-5.7
	c1.1-1.4,3.1-1.9,4.7-1.2c3.8,2.5,7.1,5.9,9.5,9.8c1.2,1.9,0.6,4.4-1.3,5.6C936.2,827.2,935.5,827.4,934.8,827.4z"/>
<ellipse transform="matrix(0.83 -0.5577 0.5577 0.83 -265.1138 706.9108)" class="st4" cx="1027.2" cy="788.4" rx="30.5" ry="18.3"/>
<path class="st0" d="M1535.7,845.7c8,1.1,16.1,0.5,23.8-1.7c18.6-5.4,32.5-20.3,34.9-36.3c1.3-8-0.3-16.3-4.5-23.2
	c-2.9-4.8-2.7-10.9,0.6-15.4c4.5-6.4,6.9-13.9,6.9-21.7c0-17.4-12.2-33.2-30.2-40.6c-8.2-3.2-14.5-9.8-17.4-18.1
	c-5.3-16.8-17.2-24.6-34.4-27.1c-15.5-2.2-29.5,2.8-36.8,12.5c-4.3,5.6-13.4,8.1-22.8,5.8c-5.8-1.4-11.7-2.2-17.6-2.3
	c-26-0.2-48.1,13.2-51.9,32.5c-1.2,6.5-0.4,13.1,2.3,19.1c4.5,10.3,0.4,21.2-10.2,28.9s-16.6,17.8-16.6,28.9c0,13.4,21.6,24,40,30.3
	c13.9,4.8,22.4,14.2,24.4,25.1c0,0.1,0,0.3,0,0.4c3.5,18.1,23.4,30.2,46.8,29.3c16.9-0.4,33-7.5,44.7-19.7
	C1522.2,847.3,1528.9,844.8,1535.7,845.7z"/>
<circle class="st1" cx="1510.1" cy="768.5" r="50.8"/>
<path class="st2" d="M1499.9,739.6c-2.2,0-4-1.9-4-4.1c0-1.7,1.1-3.3,2.8-3.8c3.7-1.1,7.5-1.7,11.4-1.7c2.2,0,4.1,1.8,4.1,4.1
	c0,2.2-1.8,4.1-4.1,4.1c-3,0-6.1,0.4-9,1.3C1500.7,739.5,1500.3,739.6,1499.9,739.6z"/>
<path class="st2" d="M1475.5,772.6c-2.2,0-4.1-1.8-4.1-4.1c0-11.4,5-22.2,13.7-29.5c1.5-1.6,4.1-1.7,5.7-0.2
	c1.6,1.5,1.7,4.1,0.2,5.7c-0.2,0.2-0.4,0.4-0.7,0.6c-6.9,5.8-10.8,14.3-10.8,23.3C1479.6,770.8,1477.8,772.6,1475.5,772.6z"/>
<path class="st3" d="M1402.4,717.7c-2.2,0-4.1-1.8-4.1-4c0-0.8,0.2-1.6,0.7-2.3c5-7.8,12.2-14,20.8-17.8c2-1.1,4.4-0.4,5.5,1.6
	c1.1,2,0.4,4.4-1.6,5.5c-0.2,0.1-0.4,0.2-0.7,0.3c-7.1,3.1-13.2,8.3-17.4,14.9C1404.9,717,1403.7,717.7,1402.4,717.7z"/>
<path class="st3" d="M1447.1,697.4h-0.6c-3-0.3-6-0.3-9,0c-2.2,0.2-4.2-1.4-4.5-3.7c-0.2-2.2,1.4-4.2,3.7-4.5l0,0
	c3.6-0.4,7.3-0.4,10.9,0c2.2,0.2,3.9,2.1,3.8,4.3C1451.3,695.9,1449.3,697.6,1447.1,697.4z"/>
<path class="st3" d="M1460.3,855.7c-12.7,0-23.6-9.1-25.8-21.6c-0.4-2.2,1.1-4.4,3.4-4.8c2.2-0.4,4.4,1.1,4.8,3.4
	c1.6,9.4,10.3,15.8,19.7,14.7h0.6c2.2-0.3,4.3,1.3,4.6,3.6c0.3,2.2-1.3,4.3-3.6,4.6h-0.6C1462.2,855.7,1461.2,855.7,1460.3,855.7z"
	/>
<path class="st3" d="M1434.8,827.4c-1.4,0-2.8-0.7-3.5-1.9c-1.7-2.8-3.9-5.2-6.6-7.1c-1.8-1.4-2.1-3.9-0.7-5.7
	c1.1-1.4,3.1-1.9,4.7-1.2c3.8,2.5,7.1,5.9,9.5,9.8c1.2,1.9,0.6,4.4-1.3,5.6C1436.2,827.2,1435.5,827.4,1434.8,827.4z"/>
<ellipse transform="matrix(0.83 -0.5577 0.5577 0.83 -180.1199 985.7834)" class="st4" cx="1527.2" cy="788.4" rx="30.5" ry="18.3"/>
<path class="st0" d="M2035.7,845.7c8,1.1,16.1,0.5,23.8-1.7c18.6-5.4,32.5-20.3,34.9-36.3c1.3-8-0.3-16.3-4.5-23.2
	c-2.9-4.8-2.7-10.9,0.6-15.4c4.5-6.4,6.9-13.9,6.9-21.7c0-17.4-12.2-33.2-30.2-40.6c-8.2-3.2-14.5-9.8-17.4-18.1
	c-5.3-16.8-17.2-24.6-34.4-27.1c-15.5-2.2-29.5,2.8-36.8,12.5c-4.3,5.6-13.4,8.1-22.8,5.8c-5.8-1.4-11.7-2.2-17.6-2.3
	c-26-0.2-48.1,13.2-51.9,32.5c-1.2,6.5-0.4,13.1,2.3,19.1c4.5,10.3,0.4,21.2-10.2,28.9s-16.6,17.8-16.6,28.9c0,13.4,21.6,24,40,30.3
	c13.9,4.8,22.4,14.2,24.4,25.1c0,0.1,0,0.3,0,0.4c3.5,18.1,23.4,30.2,46.8,29.3c16.9-0.4,33-7.5,44.7-19.7
	C2022.2,847.3,2028.9,844.8,2035.7,845.7z"/>
<path class="st3" d="M1902.4,717.7c-2.2,0-4.1-1.8-4.1-4c0-0.8,0.2-1.6,0.7-2.3c5-7.8,12.2-14,20.8-17.8c2-1.1,4.4-0.4,5.5,1.6
	c1.1,2,0.4,4.4-1.6,5.5c-0.2,0.1-0.4,0.2-0.7,0.3c-7.1,3.1-13.2,8.3-17.4,14.9C1904.9,717,1903.7,717.7,1902.4,717.7z"/>
<path class="st0" d="M1035.7,345.7c8,1.1,16.1,0.5,23.8-1.7c18.6-5.4,32.5-20.3,34.9-36.3c1.3-8-0.3-16.3-4.5-23.2
	c-2.9-4.8-2.7-10.9,0.6-15.4c4.5-6.4,6.9-13.9,6.9-21.7c0-17.4-12.2-33.2-30.2-40.6c-8.2-3.2-14.5-9.8-17.4-18.1
	c-5.3-16.8-17.2-24.6-34.4-27.1c-15.5-2.2-29.5,2.8-36.8,12.5c-4.3,5.6-13.4,8.1-22.8,5.8c-5.8-1.4-11.7-2.2-17.6-2.3
	c-26-0.2-48.1,13.2-51.9,32.5c-1.2,6.5-0.4,13.1,2.3,19.1c4.5,10.3,0.4,21.2-10.2,28.9c-10.6,7.7-16.6,17.8-16.6,28.9
	c0,13.4,21.6,24,40,30.3c13.9,4.8,22.4,14.2,24.4,25.1c0,0.1,0,0.3,0,0.4c3.5,18.1,23.4,30.2,46.8,29.3c16.9-0.4,33-7.5,44.7-19.7
	C1022.2,347.3,1028.9,344.8,1035.7,345.7z"/>
<circle class="st1" cx="1010.1" cy="268.5" r="50.8"/>
<path class="st2" d="M999.9,239.6c-2.2,0-4-1.9-4-4.1c0-1.7,1.1-3.3,2.8-3.8c3.7-1.1,7.5-1.7,11.4-1.7c2.2,0,4.1,1.8,4.1,4.1
	c0,2.2-1.8,4.1-4.1,4.1c-3,0-6.1,0.4-9,1.3C1000.7,239.5,1000.3,239.6,999.9,239.6z"/>
<path class="st2" d="M975.5,272.6c-2.2,0-4.1-1.8-4.1-4.1c0-11.4,5-22.2,13.7-29.5c1.5-1.6,4.1-1.7,5.7-0.2c1.6,1.5,1.7,4.1,0.2,5.7
	c-0.2,0.2-0.4,0.4-0.7,0.6c-6.9,5.8-10.8,14.3-10.8,23.3C979.6,270.8,977.8,272.6,975.5,272.6z"/>
<path class="st3" d="M902.4,217.7c-2.2,0-4.1-1.8-4.1-4c0-0.8,0.2-1.6,0.7-2.3c5-7.8,12.2-14,20.8-17.8c2-1.1,4.4-0.4,5.5,1.6
	c1.1,2,0.4,4.4-1.6,5.5c-0.2,0.1-0.4,0.2-0.7,0.3c-7.1,3.1-13.2,8.3-17.4,14.9C904.9,217,903.7,217.7,902.4,217.7z"/>
<path class="st3" d="M947.1,197.4h-0.6c-3-0.3-6-0.3-9,0c-2.2,0.2-4.2-1.4-4.5-3.7c-0.2-2.2,1.4-4.2,3.7-4.5l0,0
	c3.6-0.4,7.3-0.4,10.9,0c2.2,0.2,3.9,2.1,3.8,4.3C951.3,195.9,949.3,197.6,947.1,197.4z"/>
<path class="st3" d="M960.3,355.7c-12.7,0-23.6-9.1-25.8-21.6c-0.4-2.2,1.1-4.4,3.4-4.8c2.2-0.4,4.4,1.1,4.8,3.4
	c1.6,9.4,10.3,15.8,19.7,14.7h0.6c2.2-0.3,4.3,1.3,4.6,3.6c0.3,2.2-1.3,4.3-3.6,4.6h-0.6C962.2,355.7,961.2,355.7,960.3,355.7z"/>
<path class="st3" d="M934.8,327.4c-1.4,0-2.8-0.7-3.5-1.9c-1.7-2.8-3.9-5.2-6.6-7.1c-1.8-1.4-2.1-3.9-0.7-5.7
	c1.1-1.4,3.1-1.9,4.7-1.2c3.8,2.5,7.1,5.9,9.5,9.8c1.2,1.9,0.6,4.4-1.3,5.6C936.2,327.2,935.5,327.4,934.8,327.4z"/>
<ellipse transform="matrix(0.83 -0.5577 0.5577 0.83 13.7588 621.9169)" class="st4" cx="1027.2" cy="288.4" rx="30.5" ry="18.3"/>
<path class="st0" d="M1535.7,345.7c8,1.1,16.1,0.5,23.8-1.7c18.6-5.4,32.5-20.3,34.9-36.3c1.3-8-0.3-16.3-4.5-23.2
	c-2.9-4.8-2.7-10.9,0.6-15.4c4.5-6.4,6.9-13.9,6.9-21.7c0-17.4-12.2-33.2-30.2-40.6c-8.2-3.2-14.5-9.8-17.4-18.1
	c-5.3-16.8-17.2-24.6-34.4-27.1c-15.5-2.2-29.5,2.8-36.8,12.5c-4.3,5.6-13.4,8.1-22.8,5.8c-5.8-1.4-11.7-2.2-17.6-2.3
	c-26-0.2-48.1,13.2-51.9,32.5c-1.2,6.5-0.4,13.1,2.3,19.1c4.5,10.3,0.4,21.2-10.2,28.9c-10.6,7.7-16.6,17.8-16.6,28.9
	c0,13.4,21.6,24,40,30.3c13.9,4.8,22.4,14.2,24.4,25.1c0,0.1,0,0.3,0,0.4c3.5,18.1,23.4,30.2,46.8,29.3c16.9-0.4,33-7.5,44.7-19.7
	C1522.2,347.3,1528.9,344.8,1535.7,345.7z"/>
<circle class="st1" cx="1510.1" cy="268.5" r="50.8"/>
<path class="st2" d="M1499.9,239.6c-2.2,0-4-1.9-4-4.1c0-1.7,1.1-3.3,2.8-3.8c3.7-1.1,7.5-1.7,11.4-1.7c2.2,0,4.1,1.8,4.1,4.1
	c0,2.2-1.8,4.1-4.1,4.1c-3,0-6.1,0.4-9,1.3C1500.7,239.5,1500.3,239.6,1499.9,239.6z"/>
<path class="st2" d="M1475.5,272.6c-2.2,0-4.1-1.8-4.1-4.1c0-11.4,5-22.2,13.7-29.5c1.5-1.6,4.1-1.7,5.7-0.2
	c1.6,1.5,1.7,4.1,0.2,5.7c-0.2,0.2-0.4,0.4-0.7,0.6c-6.9,5.8-10.8,14.3-10.8,23.3C1479.6,270.8,1477.8,272.6,1475.5,272.6z"/>
<path class="st3" d="M1402.4,217.7c-2.2,0-4.1-1.8-4.1-4c0-0.8,0.2-1.6,0.7-2.3c5-7.8,12.2-14,20.8-17.8c2-1.1,4.4-0.4,5.5,1.6
	c1.1,2,0.4,4.4-1.6,5.5c-0.2,0.1-0.4,0.2-0.7,0.3c-7.1,3.1-13.2,8.3-17.4,14.9C1404.9,217,1403.7,217.7,1402.4,217.7z"/>
<path class="st3" d="M1447.1,197.4h-0.6c-3-0.3-6-0.3-9,0c-2.2,0.2-4.2-1.4-4.5-3.7c-0.2-2.2,1.4-4.2,3.7-4.5l0,0
	c3.6-0.4,7.3-0.4,10.9,0c2.2,0.2,3.9,2.1,3.8,4.3C1451.3,195.9,1449.3,197.6,1447.1,197.4z"/>
<path class="st3" d="M1460.3,355.7c-12.7,0-23.6-9.1-25.8-21.6c-0.4-2.2,1.1-4.4,3.4-4.8c2.2-0.4,4.4,1.1,4.8,3.4
	c1.6,9.4,10.3,15.8,19.7,14.7h0.6c2.2-0.3,4.3,1.3,4.6,3.6c0.3,2.2-1.3,4.3-3.6,4.6h-0.6C1462.2,355.7,1461.2,355.7,1460.3,355.7z"
	/>
<path class="st3" d="M1434.8,327.4c-1.4,0-2.8-0.7-3.5-1.9c-1.7-2.8-3.9-5.2-6.6-7.1c-1.8-1.4-2.1-3.9-0.7-5.7
	c1.1-1.4,3.1-1.9,4.7-1.2c3.8,2.5,7.1,5.9,9.5,9.8c1.2,1.9,0.6,4.4-1.3,5.6C1436.2,327.2,1435.5,327.4,1434.8,327.4z"/>
<ellipse transform="matrix(0.83 -0.5577 0.5577 0.83 98.7526 900.7895)" class="st4" cx="1527.2" cy="288.4" rx="30.5" ry="18.3"/>
<path class="st0" d="M2035.7,345.7c8,1.1,16.1,0.5,23.8-1.7c18.6-5.4,32.5-20.3,34.9-36.3c1.3-8-0.3-16.3-4.5-23.2
	c-2.9-4.8-2.7-10.9,0.6-15.4c4.5-6.4,6.9-13.9,6.9-21.7c0-17.4-12.2-33.2-30.2-40.6c-8.2-3.2-14.5-9.8-17.4-18.1
	c-5.3-16.8-17.2-24.6-34.4-27.1c-15.5-2.2-29.5,2.8-36.8,12.5c-4.3,5.6-13.4,8.1-22.8,5.8c-5.8-1.4-11.7-2.2-17.6-2.3
	c-26-0.2-48.1,13.2-51.9,32.5c-1.2,6.5-0.4,13.1,2.3,19.1c4.5,10.3,0.4,21.2-10.2,28.9c-10.6,7.7-16.6,17.8-16.6,28.9
	c0,13.4,21.6,24,40,30.3c13.9,4.8,22.4,14.2,24.4,25.1c0,0.1,0,0.3,0,0.4c3.5,18.1,23.4,30.2,46.8,29.3c16.9-0.4,33-7.5,44.7-19.7
	C2022.2,347.3,2028.9,344.8,2035.7,345.7z"/>
<path class="st3" d="M1902.4,217.7c-2.2,0-4.1-1.8-4.1-4c0-0.8,0.2-1.6,0.7-2.3c5-7.8,12.2-14,20.8-17.8c2-1.1,4.4-0.4,5.5,1.6
	c1.1,2,0.4,4.4-1.6,5.5c-0.2,0.1-0.4,0.2-0.7,0.3c-7.1,3.1-13.2,8.3-17.4,14.9C1904.9,217,1903.7,217.7,1902.4,217.7z"/>
</svg>
